<svg width="27" height="77" viewBox="0 0 27 77" fill="none" xmlns="http://www.w3.org/2000/svg">
<path d="M21 8H24C25.6569 8 27 9.34315 27 11V66C27 67.6569 25.6569 69 24 69H21V8Z" fill="#343434"/>
<path d="M6 8H3C1.34315 8 0 9.34315 0 11V66C0 67.6569 1.34315 69 3 69H6V8Z" fill="#343434"/>
<line x1="5" y1="11" x2="22" y2="11" stroke="#343434" stroke-width="6"/>
<line x1="5" y1="66" x2="21" y2="66" stroke="#343434" stroke-width="6"/>
<path d="M22 8.5C22 7.38376 21.7801 6.27846 21.353 5.24719C20.9258 4.21592 20.2997 3.27889 19.5104 2.48959C18.7211 1.70029 17.7841 1.07419 16.7528 0.647024C15.7215 0.219858 14.6162 0 13.5 0C12.3838 0 11.2785 0.219858 10.2472 0.647024C9.21592 1.07419 8.27889 1.70029 7.48959 2.48959C6.70029 3.27889 6.07419 4.21592 5.64702 5.24719C5.21986 6.27846 5 7.38377 5 8.5L13.5 8.5H22Z" fill="#343434"/>
<path d="M22 68.5C22 69.6162 21.7801 70.7215 21.353 71.7528C20.9258 72.7841 20.2997 73.7211 19.5104 74.5104C18.7211 75.2997 17.7841 75.9258 16.7528 76.353C15.7215 76.7801 14.6162 77 13.5 77C12.3838 77 11.2785 76.7801 10.2472 76.353C9.21592 75.9258 8.27889 75.2997 7.48959 74.5104C6.70029 73.7211 6.07419 72.7841 5.64702 71.7528C5.21986 70.7215 5 69.6162 5 68.5L13.5 68.5H22Z" fill="#343434"/>
<line x1="5.04457" y1="65.2128" x2="23.7127" y2="46.5446" stroke="#343434" stroke-width="6"/>
<line x1="3.87868" y1="47.9037" x2="23.9037" y2="27.8787" stroke="#343434" stroke-width="6"/>
<line x1="3.87868" y1="30.3851" x2="23.3851" y2="10.8787" stroke="#343434" stroke-width="6"/>
</svg>
