<svg width="53" height="61" viewBox="0 0 53 61" fill="none" xmlns="http://www.w3.org/2000/svg">
<path d="M24 49C24 55.6274 18.6274 61 12 61C5.37258 61 0 55.6274 0 49C0 42.3726 5.37258 37 12 37C18.6274 37 24 42.3726 24 49ZM4.9805 49C4.9805 52.8768 8.12324 56.0195 12 56.0195C15.8768 56.0195 19.0195 52.8768 19.0195 49C19.0195 45.1232 15.8768 41.9805 12 41.9805C8.12324 41.9805 4.9805 45.1232 4.9805 49Z" fill="#C4C4C4"/>
<path d="M29 49C29 55.6274 34.3726 61 41 61C47.6274 61 53 55.6274 53 49C53 42.3726 47.6274 37 41 37C34.3726 37 29 42.3726 29 49ZM48.0195 49C48.0195 52.8768 44.8768 56.0195 41 56.0195C37.1232 56.0195 33.9805 52.8768 33.9805 49C33.9805 45.1232 37.1232 41.9805 41 41.9805C44.8768 41.9805 48.0195 45.1232 48.0195 49Z" fill="#C4C4C4"/>
<path d="M24 49C24 55.6274 18.6274 61 12 61C5.37258 61 0 55.6274 0 49C0 42.3726 5.37258 37 12 37C18.6274 37 24 42.3726 24 49ZM4.9805 49C4.9805 52.8768 8.12324 56.0195 12 56.0195C15.8768 56.0195 19.0195 52.8768 19.0195 49C19.0195 45.1232 15.8768 41.9805 12 41.9805C8.12324 41.9805 4.9805 45.1232 4.9805 49Z" fill="#343434"/>
<path d="M29 49C29 55.6274 34.3726 61 41 61C47.6274 61 53 55.6274 53 49C53 42.3726 47.6274 37 41 37C34.3726 37 29 42.3726 29 49ZM48.0195 49C48.0195 52.8768 44.8768 56.0195 41 56.0195C37.1232 56.0195 33.9805 52.8768 33.9805 49C33.9805 45.1232 37.1232 41.9805 41 41.9805C44.8768 41.9805 48.0195 45.1232 48.0195 49Z" fill="#343434"/>
<line x1="17.6332" y1="40.6723" x2="47.6332" y2="2.15652" stroke="#343434" stroke-width="6"/>
<line y1="-3" x2="49.1917" y2="-3" transform="matrix(-0.622056 -0.782973 -0.794771 0.60691 32.6 42.5158)" stroke="#343434" stroke-width="6"/>
</svg>
