<svg width="77" height="77" viewBox="0 0 77 77" fill="none" xmlns="http://www.w3.org/2000/svg">
<circle cx="38.5" cy="38.5" r="38.5" fill="white"/>
<g opacity="0.2">
<g opacity="0.2">
<path opacity="0.2" d="M43.979 40.4703C43.5259 40.4703 43.2994 40.4703 42.8463 40.4703C39.6749 39.7907 36.2769 39.7907 33.1054 40.4703C32.8789 40.4703 32.4258 40.4703 31.9728 40.4703C28.1217 40.4703 24.9503 36.6192 23.8176 31.1824V36.8458C23.8176 43.4152 29.934 48.852 37.6361 48.852C45.3382 48.852 51.4545 43.4152 51.4545 36.8458V32.7682C50.3219 37.2988 47.377 40.4703 43.979 40.4703Z" fill="#1A2330"/>
</g>
</g>
<path d="M44.2055 50.4377C44.8851 49.5316 46.0178 49.305 47.1505 49.7581H47.377C50.5485 51.1173 52.8138 53.3826 52.8138 55.6479C52.8138 59.952 46.2443 63.35 37.8627 63.35C29.481 63.35 22.9115 59.952 22.9115 55.6479C22.9115 53.1561 25.1769 50.8907 28.5748 49.5316C29.7075 49.0785 30.8402 49.305 31.5198 50.2112L34.6912 54.0622C36.2769 56.101 39.4484 56.101 41.2606 54.0622L44.2055 50.4377Z" fill="#1A2330"/>
<path d="M37.8627 50.6642C29.481 50.6642 22.9115 43.8682 22.9115 35.7131V27.7844C22.9115 19.4028 29.7075 12.8333 37.8627 12.8333C46.0178 12.8333 52.8138 19.6293 52.8138 27.7844V35.7131C52.8138 43.8682 46.2443 50.6642 37.8627 50.6642ZM37.8627 15.0986C30.8402 15.0986 25.1769 20.762 25.1769 27.7844V35.7131C25.1769 42.7356 30.8402 48.3989 37.8627 48.3989C44.8851 48.3989 50.5485 42.7356 50.5485 35.7131V27.7844C50.5485 20.762 44.8851 15.0986 37.8627 15.0986Z" fill="#1A2330"/>
<path d="M23.3646 39.111C22.685 39.111 21.7788 38.8845 21.0992 38.2049C20.1931 37.5253 19.5135 36.3927 19.0604 35.26C18.1543 32.5416 18.8339 29.5967 20.8727 28.9171C22.0054 28.464 23.5911 28.9171 24.7238 30.0498L23.138 31.862C22.685 31.409 22.2319 31.1824 21.7788 31.409C21.0992 31.6355 20.8727 33.2212 21.3258 34.5804C21.5523 35.4865 22.0054 36.1661 22.685 36.3927C22.9115 36.6192 23.3646 36.8457 23.8176 36.6192L24.7238 38.8845C24.0442 39.111 23.5911 39.111 23.3646 39.111Z" fill="#1A2330"/>
<path d="M52.3607 39.111C51.9076 39.111 51.6811 39.111 51.4546 38.8845L52.3607 36.6192C52.8138 36.8457 53.2668 36.3927 53.4933 36.3927C53.9464 35.9396 54.626 35.26 54.8525 34.5804C55.3056 32.9947 55.0791 31.6355 54.3995 31.409C53.9464 31.1824 53.4934 31.409 53.0403 31.862L51.228 30.0498C52.3607 28.9171 53.7199 28.464 55.0791 28.9171C57.1179 29.5967 58.024 32.5416 56.8913 35.26C56.4383 36.6192 55.7587 37.5253 54.8525 38.2049C53.9464 38.8845 53.2668 39.111 52.3607 39.111Z" fill="#1A2330"/>
<path d="M48.0566 39.111C46.2443 40.0171 43.979 39.5641 42.8464 37.7518C42.3933 36.8457 41.2606 36.1661 40.128 36.1661C39.2218 36.1661 38.5422 36.6192 37.8626 37.0722C37.4096 36.3926 36.5035 36.1661 35.5973 36.1661C34.4647 36.1661 33.5585 36.8457 32.8789 37.7518C31.7463 39.3375 29.481 40.0171 27.6687 39.111L28.1218 39.5641C30.1606 42.0559 33.5585 42.9621 36.5035 41.8294C36.9565 41.6029 37.4096 41.3763 37.8626 40.9233C38.0892 41.3763 38.5422 41.6029 39.2218 41.8294C42.1668 42.9621 45.5647 42.0559 47.6035 39.5641L48.0566 39.111Z" fill="#1A2330"/>
<path d="M33.785 34.1273C33.332 34.1273 32.8789 33.9008 32.6524 33.4477C32.4258 33.2212 32.1993 32.9947 31.7463 32.9947C31.2932 32.9947 31.0667 33.2212 30.8401 33.4477C30.6136 34.1273 29.7075 34.3539 29.2544 33.9008C28.8013 33.6743 28.5748 32.7681 28.8013 32.3151C29.4809 31.1824 30.6136 30.5028 31.7463 30.5028C33.1054 30.5028 34.2381 31.1824 34.6912 32.3151C34.9177 32.9947 34.6912 33.6743 34.2381 33.9008C34.2381 34.1273 34.0116 34.1273 33.785 34.1273Z" fill="#1A2330"/>
<path d="M45.7912 34.1273C45.3381 34.1273 44.8851 33.9008 44.6585 33.4477C44.432 33.2212 44.2055 32.9947 43.7524 32.9947C43.2993 32.9947 43.0728 33.2212 42.8463 33.4477C42.6197 34.1273 41.7136 34.3539 41.2606 33.9008C40.581 33.6743 40.3544 32.7681 40.8075 32.3151C41.4871 31.1824 42.6197 30.5028 43.7524 30.5028C45.1116 30.5028 46.2443 31.1824 46.6973 32.3151C46.9239 32.9947 46.6973 33.6743 46.2443 33.9008C46.2443 34.1273 46.0177 34.1273 45.7912 34.1273Z" fill="#1A2330"/>
<path d="M25.1768 28.4641L26.083 25.9722C27.6687 21.4416 31.9728 18.2701 36.73 18.0436C36.73 20.0824 38.7688 21.6681 40.8076 20.9885C44.6586 21.215 48.0566 23.4804 49.6423 26.8783L50.3219 28.4641L51.0015 23.9334L48.0566 18.0436L39.4484 13.966L31.0667 15.3252L25.4034 22.5742L24.2707 28.2375H25.1768V28.4641Z" fill="#1A2330"/>
</svg>
