<svg width="90" height="90" viewBox="0 0 90 90" fill="none" xmlns="http://www.w3.org/2000/svg">
<circle cx="45" cy="45" r="45" fill="white"/>
<path d="M44.7603 74.1C34.9511 74.1 27.3491 69.9311 27.3491 64.2909C27.3491 61.1029 29.8013 58.4054 34.2155 56.4436C35.932 55.7079 37.8939 56.1983 38.8748 57.6697L44.7603 64.7813L50.6457 57.4245C51.8719 55.9531 53.8337 55.4627 55.3051 56.4436H55.5503C59.7192 58.1602 62.1715 61.1029 62.1715 64.0456C62.1715 69.9311 54.5694 74.1 44.7603 74.1ZM35.932 58.8959C35.6868 58.8959 35.6868 58.8959 35.4416 58.8959C32.0084 60.3672 30.0466 62.329 30.0466 64.5361C30.0466 67.9693 35.932 71.6477 44.7603 71.6477C53.5885 71.6477 59.474 67.9693 59.474 64.5361C59.474 62.5743 57.5121 60.6124 54.5694 59.3863C54.5694 59.3863 54.3242 59.3863 54.3242 59.1411C53.8337 58.8959 53.098 59.1411 52.8528 59.3863L45.0055 69.1954L37.1582 59.6315C36.6677 59.1411 36.1773 58.8959 35.932 58.8959Z" fill="#1A2330"/>
<path d="M44.7603 60.6124C35.6868 60.6124 28.5752 53.2556 28.5752 44.4274V35.8444C28.5752 26.7709 35.9321 19.6593 44.7603 19.6593C53.5885 19.6593 60.9453 27.0162 60.9453 35.8444V44.4274C60.9453 53.5008 53.8337 60.6124 44.7603 60.6124ZM44.7603 22.1116C37.1582 22.1116 31.0275 28.2423 31.0275 35.8444V44.4274C31.0275 52.0295 37.1582 58.1602 44.7603 58.1602C52.3623 58.1602 58.4931 52.0295 58.4931 44.4274V35.8444C58.4931 28.2423 52.3623 22.1116 44.7603 22.1116Z" fill="#1A2330"/>
<path d="M29.0656 48.1058C28.33 48.1058 27.349 47.8606 26.6134 47.1249C25.6324 46.3892 24.8968 45.1631 24.4063 43.9369C23.9159 42.4656 23.9159 41.2394 24.1611 40.0133C24.4063 38.5419 25.3872 37.561 26.6134 37.0706C27.8395 36.5801 29.5561 37.0706 30.7822 38.2967L28.5752 40.2585C28.0847 39.7681 27.5943 39.5228 27.1038 39.7681C26.6134 40.0133 26.3681 40.5038 26.3681 40.749C26.1229 41.4847 26.3681 42.4656 26.6134 43.2013C26.8586 43.937 27.5943 44.6726 28.0847 45.1631C28.33 45.4083 28.8204 45.6535 29.3109 45.4083L30.2918 47.8606C29.8013 48.1058 29.3109 48.1058 29.0656 48.1058Z" fill="#1A2330"/>
<path d="M60.4548 48.1058C59.9644 48.1058 59.7192 48.1058 59.4739 47.8606L60.4548 45.4083C60.9453 45.6535 61.4358 45.1631 61.681 45.1631C62.1714 44.6726 62.9071 43.937 63.1524 43.2013C63.3976 42.2204 63.6428 41.4847 63.3976 40.749C63.3976 40.5038 63.1524 40.0133 62.6619 39.7681C62.1714 39.5228 61.681 39.7681 61.1905 40.2585L59.4739 38.2967C60.7001 37.0706 62.1715 36.5801 63.6428 37.0706C64.869 37.561 65.6046 38.5419 66.0951 40.0133C66.3403 41.2394 66.3403 42.7108 65.8499 43.9369C65.3594 45.4083 64.6237 46.3892 63.6428 47.1249C62.1715 47.8606 61.4358 48.1058 60.4548 48.1058Z" fill="#1A2330"/>
<path d="M53.098 41.7299C52.8528 41.7299 52.6076 41.4846 52.3623 40.9942C52.3623 40.7489 52.3623 40.749 52.3623 40.5037C52.3623 40.0133 52.1171 39.5228 51.6266 39.5228C50.6457 39.5228 49.6648 40.5037 49.6648 41.4846C49.4196 42.956 50.6457 44.1821 52.1171 43.9369C53.098 43.9369 53.8337 43.2012 54.0789 42.4655C54.3241 42.2203 53.8337 41.7299 53.098 41.7299C53.3432 41.7299 53.3432 41.7299 53.098 41.7299Z" fill="#1A2330"/>
<path d="M38.8748 41.7299C38.6295 41.7299 38.3843 41.4846 38.1391 40.9942C38.1391 40.7489 38.1391 40.749 38.1391 40.5037C38.1391 40.0133 37.8939 39.5228 37.4034 39.5228C36.4225 39.5228 35.4416 40.5037 35.4416 41.4846C35.1963 42.956 36.4225 44.1821 37.8939 43.9369C38.8748 43.9369 39.6105 43.2012 39.8557 42.4655C40.1009 42.2203 39.6105 41.7299 38.8748 41.7299C39.12 41.7299 39.12 41.7299 38.8748 41.7299Z" fill="#1A2330"/>
<path d="M60.9453 39.2776L59.9644 24.8091C59.7192 23.0925 58.7383 21.6212 57.2669 20.6402C55.3051 19.4141 52.8528 19.1689 50.891 20.1498C50.4005 17.2071 47.9482 15 44.7603 15C43.2889 15 41.8175 15.4905 40.8366 16.4714C39.12 17.9427 36.913 19.1689 34.7059 19.4141C33.725 19.6593 32.9893 19.9046 32.2536 20.395C30.7823 21.3759 29.8014 22.8473 29.5561 24.5639L28.5752 39.0324L29.0657 37.8062C30.2918 33.3921 32.2536 28.978 34.7059 25.0544C33.9702 27.9971 34.4607 30.9398 35.9321 33.3921L36.6677 34.6183V34.373C36.1773 30.9398 37.1582 27.5066 39.6105 24.8091C40.5914 26.771 42.7985 28.2423 45.2507 28.2423C47.703 28.2423 49.9101 26.771 50.891 24.8091C53.098 27.5066 54.3242 30.9398 53.8337 34.373V34.6183L54.5694 33.3921C56.0408 30.6946 56.286 27.7519 55.7955 25.0544C58.2478 28.978 60.2097 33.3921 61.4358 37.8062L60.9453 39.2776Z" fill="#1A2330"/>
<path d="M51.8719 49.5772C51.3814 50.0676 50.4005 49.8224 50.1553 49.0867C49.1744 47.6153 47.703 46.8797 45.9864 46.8797H43.2889C41.5723 46.8797 40.1009 47.8606 39.12 49.0867C38.6295 49.8224 37.8939 49.8224 37.4034 49.5772C33.4798 46.8797 30.7822 42.2203 30.7822 36.8253V44.4274C30.7822 52.7651 36.9129 59.3863 44.7603 59.3863C52.6076 59.3863 58.7383 52.7651 58.7383 44.4274V36.8253C58.7383 42.2203 56.0407 46.8797 51.8719 49.5772ZM44.7603 55.4626C42.5532 55.4626 40.8366 53.746 40.8366 51.539C40.8366 49.3319 42.5532 49.3319 44.7603 49.3319C46.9673 49.3319 48.6839 49.5772 48.6839 51.539C48.6839 53.746 46.9673 55.4626 44.7603 55.4626Z" fill="#1A2330"/>
</svg>
