<svg width="69" height="69" viewBox="0 0 69 69" fill="none" xmlns="http://www.w3.org/2000/svg">
<circle cx="34.5" cy="34.5" r="34.5" fill="white"/>
<path d="M34.5634 59.7869C26.7225 59.7869 20.6458 56.4545 20.6458 51.946C20.6458 49.3977 22.606 47.2415 26.1344 45.6733C26.5265 45.4773 26.9185 45.2813 27.3106 45.0852L28.4867 46.8494C27.8987 47.2415 27.5066 47.4375 26.9185 47.6335C24.3702 48.8097 22.8021 50.5739 22.8021 52.142C22.8021 54.8864 27.5066 57.8267 34.5634 57.8267C41.6202 57.8267 46.3248 54.8864 46.3248 52.142C46.3248 50.5739 44.7566 49.0057 42.4043 48.0256C41.8163 47.8295 41.2282 47.4375 40.6401 47.0455L41.8163 45.4773C42.2083 45.8693 42.6004 46.0653 43.1884 46.2614C46.5208 47.6335 48.481 49.9858 48.481 52.3381C48.481 56.4545 42.4043 59.7869 34.5634 59.7869Z" fill="#1A2330"/>
<path d="M22.018 39.2045C20.4498 39.2045 18.8816 37.8324 18.0975 35.8722C17.7055 34.696 17.7055 33.7159 17.9015 32.7358C18.0975 31.5597 18.8816 30.7756 19.8617 30.3835C20.8418 29.9915 22.214 30.3835 23.1941 31.3636L21.8219 32.9318C21.4299 32.5398 21.0379 32.3438 20.6458 32.5398C20.2538 32.7358 20.0577 33.1278 20.0577 33.3239C19.8617 33.9119 20.0577 34.696 20.2538 35.2841C20.6458 36.6563 21.8219 37.4403 22.41 37.2443L23.1941 39.2045C22.606 39.0085 22.214 39.2045 22.018 39.2045Z" fill="#1A2330"/>
<path d="M47.1089 39.2046C46.7168 39.2046 46.5208 39.2046 46.1288 39.0085L46.9128 37.0483C47.5009 37.2443 48.481 36.4602 49.0691 35.0881C49.2651 34.304 49.4611 33.7159 49.2651 33.1278C49.2651 32.9318 49.0691 32.5398 48.6771 32.3438C48.285 32.1477 47.893 32.3438 47.5009 32.7358L46.1288 31.1676C47.1089 30.1875 48.285 29.7955 49.4611 30.1875C50.4413 30.5795 51.0293 31.3636 51.4214 32.5398C51.6174 33.5199 51.6174 34.696 51.2253 35.6761C50.2452 37.8324 48.677 39.2046 47.1089 39.2046Z" fill="#1A2330"/>
<path d="M30.643 36.2642C30.2509 36.2642 29.8589 36.0682 29.6628 35.6761C29.4668 35.4801 29.2708 35.2841 28.8788 35.2841C28.4867 35.2841 28.2907 35.4801 28.0947 35.6761C27.8986 36.2642 27.1146 36.4602 26.7225 36.0682C26.1344 35.8722 25.9384 35.0881 26.3305 34.696C26.9185 33.7159 27.8986 33.1278 28.8788 33.1278C30.0549 33.1278 31.035 33.7159 31.427 34.696C31.6231 35.2841 31.427 35.8722 31.035 36.0682C31.035 36.0682 30.839 36.2642 30.643 36.2642Z" fill="#1A2330"/>
<path d="M43.3844 39.9886C41.8162 40.7727 39.856 40.3807 38.8759 38.8125C38.4839 38.0284 37.5037 37.4403 36.5236 37.4403C35.7395 37.4403 35.1515 37.8324 34.5634 38.2244C34.1713 37.6364 33.3873 37.4403 32.6032 37.4403C31.6231 37.4403 30.839 38.0284 30.2509 38.8125C29.2708 40.1847 27.3106 40.7727 25.7424 39.9886L26.1344 40.3807C27.8986 42.5369 30.839 43.321 33.3873 42.3409C33.7793 42.1449 34.1713 41.9489 34.5634 41.5568C34.7594 41.9489 35.1515 42.1449 35.7395 42.3409C38.2878 43.321 41.2282 42.5369 42.9924 40.3807L43.3844 39.9886Z" fill="#1A2330"/>
<path d="M41.2282 34.304C41.0322 34.304 40.8361 34.108 40.6401 33.7159C40.6401 33.5199 40.6401 33.5199 40.6401 33.3239C40.6401 32.9318 40.4441 32.5398 40.0521 32.5398C39.268 32.5398 38.4839 33.3239 38.4839 34.108C38.2878 35.2841 39.268 36.2642 40.4441 36.0682C41.2282 36.0682 41.8163 35.4801 42.0123 34.892C42.0123 34.892 41.6202 34.5 41.2282 34.304Z" fill="#1A2330"/>
<path d="M21.822 42.5369C20.8418 42.5369 19.8617 41.9489 19.2737 40.9688C18.2935 39.5966 18.8816 37.6364 20.2538 36.6563C20.8418 36.2642 21.4299 36.4602 21.6259 37.0483C22.018 37.6364 21.822 38.2244 21.2339 38.4205C20.8418 39.0085 20.6458 39.5966 21.0379 39.9886C21.2339 40.3807 22.018 40.5767 22.41 40.3807C22.9981 39.9886 23.5862 40.1847 23.7822 40.7727C24.1742 41.3608 23.9782 41.9489 23.3901 42.1449C22.9981 42.5369 22.41 42.5369 21.822 42.5369Z" fill="#1A2330"/>
<path d="M34.5634 16.2699C32.9952 16.2699 31.6231 16.4659 30.2509 17.054L31.231 19.0142C32.2112 18.6222 33.3873 18.4261 34.5634 18.4261C40.6401 18.4261 45.5407 23.3267 45.5407 29.4034V36.2642C45.5407 42.3409 40.6401 47.2415 34.5634 47.2415C28.4867 47.2415 23.5862 42.3409 23.5862 36.2642V29.2074C23.5862 24.6989 26.3305 20.9744 30.0549 19.2102L29.4668 17.25C24.7623 19.2102 21.4299 23.9148 21.4299 29.2074V36.0682C21.4299 43.321 27.3106 49.0057 34.3674 49.0057C41.4242 49.0057 47.3049 43.125 47.3049 36.0682V29.2074C47.5009 21.9545 41.8163 16.2699 34.5634 16.2699Z" fill="#1A2330"/>
<path d="M31.6231 9.40909H24.5663L25.7424 17.446L21.6259 10.1932V33.7159H23.7822C23.7822 29.5994 25.5464 25.679 28.6827 23.1307C30.0549 21.9545 30.643 20.1903 30.4469 18.4261L34.7594 25.2869H38.0918C42.4043 25.2869 45.7367 28.6193 45.7367 32.9318V31.5597L46.1288 32.7358L46.7168 33.7159H47.6969V25.483C47.6969 16.6619 40.4441 9.40909 31.6231 9.40909Z" fill="#1A2330"/>
<path d="M40.8362 41.9489V41.7528C40.8362 41.1648 40.2481 40.5767 39.66 40.5767H39.072C38.4839 40.5767 37.8958 41.1648 37.8958 41.7528C37.8958 43.321 36.9157 44.6932 35.3475 45.0852C32.9953 45.6733 31.035 43.9091 31.035 41.7528C31.035 41.1648 30.447 40.5767 29.8589 40.5767H29.2708C28.6828 40.5767 28.0947 41.1648 28.0947 41.7528V41.9489L23.9782 43.7131C23.9782 43.7131 23.9782 43.7131 28.4867 52.3381C29.2708 53.9063 30.2509 55.2784 31.8191 55.8665L32.7992 53.1222V56.0625C33.1913 56.0625 33.5833 56.2585 34.1714 56.2585H35.1515C37.6998 56.2585 39.464 54.4943 40.6401 52.142C45.1487 43.7131 45.1487 43.7131 45.1487 43.7131L40.8362 41.9489Z" fill="#1A2330"/>
</svg>
